<svg xmlns="http://www.w3.org/2000/svg" width="512" height="512" viewBox="0 0 512 512" version="1.1">
	<path d="M 132.469 24.235 C 146.527 35.800, 153.533 44.458, 160.002 58.263 C 164.103 67.013, 168.993 83.370, 168.997 88.348 L 169 91.196 165.750 89.057 C 159.290 84.806, 148.993 80.003, 141.821 77.895 C 135.961 76.172, 130.957 75.646, 116.750 75.260 C 106.987 74.994, 99.009 75.165, 99.020 75.638 C 99.031 76.112, 101.312 77.849, 104.089 79.499 C 116.732 87.006, 125.307 96.544, 131.962 110.500 C 135.500 117.921, 141.941 136.555, 143.369 143.500 L 143.985 146.500 142.243 144.035 C 131.382 128.675, 121.049 118.561, 111.095 113.548 C 104.139 110.045, 95.379 107.288, 94.380 108.287 C 94.081 108.586, 96.295 112.356, 99.300 116.665 C 108.465 129.808, 113.602 141.677, 118.517 161.066 C 122.312 176.039, 124.573 181.250, 131.075 190.021 C 134.329 194.409, 136.746 198, 136.446 198 C 136.146 198, 134.517 197.285, 132.826 196.410 C 129.106 194.486, 108 189.890, 108 191.004 C 108 191.438, 111.212 194.642, 115.138 198.122 C 119.063 201.602, 127.920 210.986, 134.818 218.975 C 141.717 226.964, 148.189 234.439, 149.201 235.586 C 150.212 236.733, 152.583 241.385, 154.468 245.923 C 160.379 260.151, 164.652 263.910, 179.908 268.304 C 187.536 270.500, 188.483 271.052, 190.127 274.256 C 191.626 277.177, 193.285 278.352, 199.720 281.048 C 203.999 282.841, 209.300 284.862, 211.500 285.540 C 221.166 288.519, 226.570 292.970, 219.589 292.203 C 218.103 292.040, 215.397 292.828, 213.576 293.953 C 211.754 295.079, 209.251 296, 208.014 296 C 206.777 296, 204.226 297.350, 202.347 299 C 200.468 300.650, 198.475 302, 197.919 302 C 195.871 302, 192.020 312.353, 192.010 317.888 C 192.001 322.795, 191.636 323.671, 187.924 327.699 C 183.699 332.282, 181 337.454, 181 340.968 C 181 342.546, 180.349 343, 178.082 343 C 173.851 343, 171.965 343.961, 170.948 346.636 C 170.454 347.936, 169.363 349, 168.525 349 C 167.229 349, 166.437 351.110, 167.250 352.395 C 167.387 352.612, 166.624 353.758, 165.554 354.940 C 162.752 358.036, 162.584 366.724, 165.269 369.699 C 166.390 370.942, 166.989 372.587, 166.646 373.481 C 166.237 374.547, 166.805 375.355, 168.382 375.955 C 169.672 376.445, 170.971 377.781, 171.270 378.923 C 171.615 380.244, 172.626 381, 174.046 381 C 175.274 381, 176.839 381.765, 177.522 382.699 C 178.647 384.237, 179.171 384.264, 183.069 382.977 C 185.436 382.196, 188.620 380.508, 190.143 379.226 C 192.754 377.029, 193.052 376.988, 195.361 378.501 C 197.709 380.039, 197.960 379.974, 201.439 376.920 C 203.434 375.167, 205.341 374.007, 205.675 374.342 C 206.009 374.676, 202.147 379.053, 197.093 384.069 C 185.999 395.079, 183.374 398.897, 179.663 409.416 C 174.253 424.755, 174.211 425.483, 178.230 434.535 C 181.996 443.016, 182.624 446.453, 180.240 445.539 C 179.456 445.238, 177.747 444.724, 176.442 444.396 C 174.129 443.815, 174.085 443.924, 174.666 448.829 C 175.429 455.269, 171.982 469.240, 167.634 477.333 C 165.910 480.542, 163.669 484.717, 162.654 486.612 C 159.264 492.939, 160.227 493.385, 175.777 492.700 C 190.606 492.047, 211.262 489.465, 214.188 487.900 C 215.184 487.366, 216 486.134, 216 485.161 C 216 483.069, 222.205 464.354, 224.028 460.948 C 224.724 459.647, 226.187 457.860, 227.278 456.976 C 229.103 455.498, 229.153 455.066, 227.901 451.603 C 226.667 448.191, 226.708 447.743, 228.330 446.835 C 231.764 444.914, 237.113 439.682, 238.616 436.775 C 239.449 435.165, 240.439 432.062, 240.815 429.880 C 241.192 427.697, 241.950 425.853, 242.500 425.782 C 243.050 425.710, 244.696 428.542, 246.157 432.075 C 249.387 439.884, 254.559 446.093, 260.818 449.675 C 263.393 451.150, 265.685 452.498, 265.911 452.672 C 266.136 452.846, 265.627 453.778, 264.779 454.744 C 263.931 455.710, 262.932 457.500, 262.559 458.723 C 261.999 460.563, 262.428 461.169, 265.048 462.238 C 268.017 463.449, 268.428 464.277, 271.653 475.515 C 273.545 482.107, 275.902 488.616, 276.890 489.981 C 278.173 491.751, 281.667 493.460, 289.094 495.948 C 298.640 499.147, 300.494 499.438, 311.527 499.467 C 321.333 499.494, 324.349 499.142, 327.864 497.559 C 331.866 495.757, 332.131 495.399, 331.575 492.559 C 331.245 490.877, 328.956 486.533, 326.488 482.906 C 324.019 479.279, 321.994 475.454, 321.987 474.406 C 321.980 473.358, 320.830 468.917, 319.432 464.538 C 317.306 457.880, 317.089 456.202, 318.109 454.296 C 319.736 451.256, 317.987 447.382, 314.265 445.783 C 312.744 445.130, 311.374 444.523, 311.220 444.434 C 311.066 444.346, 312.753 440.523, 314.970 435.939 C 317.364 430.989, 318.998 426.163, 318.996 424.053 C 318.992 420.188, 316.164 414.744, 313.197 412.891 C 312.013 412.152, 311.483 410.923, 311.749 409.532 C 311.980 408.326, 311.519 405.800, 310.725 403.919 C 308.381 398.367, 297.688 384.725, 293.313 381.705 C 288.551 378.419, 285.961 373.157, 286.276 367.412 C 286.469 363.884, 287.170 362.745, 291.391 359.093 C 299.855 351.770, 300.490 351.498, 303.716 353.816 C 305.247 354.917, 307.814 357.201, 309.421 358.891 C 312.218 361.836, 312.268 362.046, 310.600 363.889 C 309.642 364.948, 308.200 368.338, 307.394 371.423 C 306.208 375.964, 306.157 377.793, 307.126 381.028 C 308.575 385.863, 310.553 387.847, 312.242 386.158 C 314.422 383.978, 316 384.888, 316 388.326 C 316 391.728, 318.239 394.585, 322.709 396.889 C 325.754 398.457, 335.879 397.181, 338.885 394.849 C 340.197 393.832, 342.334 393, 343.635 393 C 344.936 393, 346 392.520, 346 391.933 C 346 391.346, 347.575 389.380, 349.500 387.565 C 352.615 384.627, 353 383.700, 353 379.141 C 353 375.685, 351.848 371.007, 349.458 364.759 C 347.510 359.667, 345.501 353.088, 344.993 350.140 C 344.485 347.191, 342.994 343.366, 341.681 341.640 C 340.294 339.817, 338.841 335.921, 338.214 332.350 C 337.621 328.968, 336.020 324, 334.657 321.310 C 332.011 316.088, 325.219 309.199, 320.114 306.559 C 318.360 305.652, 317 304.154, 317 303.129 C 317 300.475, 313.744 297.955, 308.915 296.869 C 306.589 296.347, 303.069 294.653, 301.093 293.104 C 299.117 291.556, 296.375 289.696, 295 288.972 L 292.500 287.654 296 286.278 C 309.964 280.787, 316.120 277.417, 318.359 274.039 C 320.331 271.064, 321.644 270.288, 326.602 269.168 C 335.456 267.168, 346.259 261.660, 349.396 257.548 C 353.044 252.765, 359.946 238.179, 360.451 234.184 C 360.678 232.395, 361.741 230.159, 362.815 229.216 C 363.888 228.272, 368.306 223.237, 372.633 218.027 C 383.048 205.487, 393.252 195.363, 402.469 188.426 C 406.611 185.308, 410 182.529, 410 182.250 C 410 181.273, 400.421 183.025, 392.651 185.422 C 388.341 186.752, 382.339 189.484, 379.313 191.493 C 376.287 193.502, 373.554 194.888, 373.239 194.573 C 372.924 194.258, 373.154 194, 373.749 194 C 375.305 194, 383.705 182.527, 387.161 175.682 C 388.780 172.474, 392.164 163.921, 394.682 156.675 C 401.998 135.618, 406.076 127.557, 416.274 114 C 420.036 108.999, 420.796 107.425, 419.568 107.174 C 417.677 106.788, 409.021 109.510, 403.790 112.137 C 401.749 113.162, 399.949 114, 399.790 114.001 C 399.630 114.001, 399.895 107.949, 400.377 100.552 C 400.859 93.156, 400.956 86.328, 400.592 85.379 C 399.989 83.807, 399.803 83.836, 398.494 85.706 C 397.704 86.834, 391.729 98.049, 385.218 110.628 C 375.463 129.472, 365 147.153, 365 144.793 C 365 144.497, 367.005 138.685, 369.457 131.877 C 376.177 113.212, 378.991 101.765, 379.683 90.280 C 380.418 78.071, 378.760 62.309, 375.350 49.087 C 373.005 39.998, 365.460 22, 363.993 22 C 363.599 22, 362.987 24.812, 362.634 28.250 C 361.774 36.627, 357.734 51.426, 354.147 59.337 C 350.852 66.603, 344.466 76.347, 340.720 79.822 L 338.218 82.144 333.183 79.593 C 325.876 75.890, 320.360 74.910, 312.375 75.897 C 308.594 76.364, 305.346 76.612, 305.157 76.447 C 304.371 75.760, 308.404 63.964, 311.791 57.045 C 316.244 47.950, 327.380 36.252, 337 30.566 C 340.575 28.452, 344.625 26.009, 346 25.136 L 348.500 23.550 344 22.849 C 307.353 17.143, 263.881 37.251, 250.145 66.263 C 248 70.793, 245.985 75.272, 245.667 76.215 C 245.140 77.779, 244.602 77.707, 239.568 75.402 C 236.530 74.012, 230.911 72.340, 227.079 71.687 L 220.113 70.500 216.084 64.259 C 208.174 52.006, 195.063 40.901, 179.134 32.964 C 165.896 26.367, 152.517 22.794, 136.500 21.578 L 128.500 20.971 132.469 24.235 M 212.855 129.971 C 201.709 133.340, 183.375 148.128, 177.961 158.116 L 174.500 164.500 174.513 178 C 174.523 188.607, 174.941 192.786, 176.465 197.500 L 178.405 203.500 179.072 193.500 C 180.179 176.911, 187.813 157.613, 197.406 147.153 C 200.159 144.151, 200.764 143.079, 199.252 143.878 C 198.016 144.533, 194.675 147.975, 191.828 151.527 C 188.982 155.079, 186.487 157.820, 186.284 157.618 C 186.082 157.415, 187.508 154.533, 189.454 151.213 C 197.761 137.041, 214.714 127.900, 226.250 131.374 C 231.802 133.046, 232.516 132.531, 227.532 130.449 C 223.808 128.893, 217.141 128.676, 212.855 129.971 M 249.311 152.106 L 249.899 165.713 238.505 166.394 C 232.238 166.768, 224.723 167.776, 221.805 168.634 C 213.993 170.929, 203.863 176.532, 199.564 180.934 L 195.792 184.798 201.594 186.484 C 214.187 190.145, 224.994 197.109, 239.135 210.675 C 243.335 214.704, 247.523 218, 248.443 218 C 249.792 218, 250.056 218.822, 249.807 222.250 C 249.503 226.455, 249.457 226.502, 245.500 226.684 C 243.300 226.786, 241.050 226.325, 240.500 225.659 C 238.948 223.782, 220.031 208.677, 215 205.297 C 206.349 199.485, 193.705 194.586, 190.306 195.728 C 188.729 196.258, 186.544 202.977, 187.642 203.922 C 188.114 204.327, 191.650 205.243, 195.500 205.957 C 211.706 208.963, 224.532 214.147, 231.865 220.657 L 236.231 224.533 236.696 233.160 C 237.228 243.044, 235.742 247.367, 231.202 249.143 C 227.566 250.565, 214.288 249.419, 211.237 247.420 C 207.381 244.893, 205.047 238.482, 205.022 230.352 C 205.004 224.390, 205.476 222.298, 207.868 217.750 L 210.737 212.297 204.503 211.149 C 201.075 210.517, 196.184 210, 193.635 210 L 189 210 189 214.941 C 189 217.659, 188.623 220.115, 188.163 220.399 C 187.703 220.684, 185.912 218.910, 184.184 216.458 C 182.455 214.006, 180.310 212, 179.417 212 C 178.187 212, 178.520 212.829, 180.794 215.418 C 185.001 220.210, 187.259 226.916, 191.899 248.400 C 194.120 258.683, 196.518 268.308, 197.227 269.787 C 198.697 272.856, 203.181 275.204, 220 281.716 C 237.431 288.464, 251.097 293, 254 293 C 258.124 293, 290.412 281.642, 303.569 275.563 C 312.004 271.666, 310.776 274.265, 317.535 246 C 321.473 229.529, 325.251 219.792, 330.008 213.853 C 332.517 210.720, 332.649 210.279, 330.946 210.724 C 328.641 211.327, 325.393 215.574, 323.848 220.007 C 323.142 222.031, 322.203 222.994, 321.134 222.791 C 319.865 222.549, 319.433 221.055, 319.199 216.096 L 318.897 209.712 311.199 210.310 C 306.964 210.640, 301.210 211.440, 298.411 212.089 L 293.322 213.269 297.584 217.532 C 302.665 222.613, 303.964 228.116, 302.074 236.561 C 299.932 246.130, 295.961 248.886, 283.735 249.287 C 278.443 249.460, 276.801 249.125, 274.973 247.500 C 271.522 244.432, 270 239.736, 270 232.159 C 270 225.278, 270.015 225.241, 274.410 221.190 C 281.863 214.319, 295.603 208.750, 312 205.953 C 316.125 205.249, 319.642 204.567, 319.816 204.437 C 320.423 203.985, 317.937 196.079, 317.007 195.504 C 314.125 193.723, 292.057 203.103, 285.760 208.784 C 283.417 210.899, 277.788 215.468, 273.250 218.939 C 268.712 222.410, 265 225.531, 265 225.875 C 265 226.219, 263.010 226.542, 260.579 226.594 C 256.185 226.687, 256.153 226.663, 255.079 222.401 C 253.701 216.926, 253.671 217.101, 255.889 217.681 C 258.602 218.391, 271.718 205.821, 274.337 200 C 278.588 190.551, 275.859 171.747, 269.647 167.694 C 268.466 166.924, 264.193 166.033, 260.151 165.714 C 256.109 165.396, 252.532 164.865, 252.201 164.535 C 251.871 164.205, 251.293 158.527, 250.917 151.917 C 250.541 145.307, 249.893 139.585, 249.478 139.200 C 249.063 138.815, 248.988 144.623, 249.311 152.106 M 322.365 145.608 C 326.272 151.124, 329 156.903, 329 159.664 C 329 160.615, 327.834 159.052, 326.408 156.192 C 324.983 153.331, 321.798 148.855, 319.331 146.245 C 315.792 142.501, 315.366 142.238, 317.311 145 C 322.266 152.034, 327.631 164.667, 323.445 159.441 C 321.944 157.568, 321.927 157.577, 322.950 159.695 C 325.869 165.733, 328.277 179.906, 328.387 191.686 C 328.449 198.389, 328.807 203.564, 329.183 203.186 C 330.703 201.659, 335.167 186.369, 336.237 179.026 C 337.220 172.285, 337.139 170.320, 335.657 164.990 C 333.767 158.193, 328.274 149.447, 322.474 144 L 318.748 140.500 322.365 145.608 M 186.771 149.250 C 185.968 150.488, 184.766 152.625, 184.100 154 C 182.935 156.407, 182.950 156.426, 184.521 154.500 C 186.394 152.204, 189.252 147, 188.641 147 C 188.415 147, 187.573 148.012, 186.771 149.250 M 291.155 174.656 C 291.620 177.870, 291.728 183.269, 291.394 186.652 L 290.788 192.805 299.644 189.436 C 304.515 187.582, 309.288 186.051, 310.250 186.033 C 316.869 185.908, 301.867 171.122, 293.405 169.431 L 290.309 168.812 291.155 174.656 M 162.110 215.404 C 156.400 218.549, 155.506 227.009, 159.589 239.266 C 163.320 250.470, 167.250 255.845, 174.232 259.291 C 177.384 260.847, 181.543 262.376, 183.473 262.689 L 186.981 263.259 184.991 257.473 C 183.896 254.291, 183 250.903, 183 249.946 C 183 248.625, 182.232 248.241, 179.817 248.353 C 176.885 248.488, 176.568 248.191, 175.797 244.578 C 175.337 242.421, 174.480 240.078, 173.893 239.371 C 173.122 238.442, 173.252 237.478, 174.366 235.887 C 175.796 233.846, 175.713 233.415, 173.203 229.866 C 171.716 227.763, 170.129 226.033, 169.676 226.021 C 169.222 226.010, 168.097 227.795, 167.176 229.990 C 166.254 232.184, 165.162 233.984, 164.750 233.990 C 162.267 234.024, 166.514 223.154, 169.915 220.772 C 171.967 219.335, 171.980 219.203, 170.273 217.226 C 167.883 214.460, 164.995 213.815, 162.110 215.404 M 341.762 215.073 C 340.807 215.630, 339.567 216.940, 339.009 217.984 C 338.166 219.559, 338.498 220.181, 340.954 221.632 C 343.727 223.270, 344.965 225.305, 346.500 230.750 C 347.189 233.193, 345.662 233.732, 343 231.985 C 341.667 231.109, 341.667 230.893, 343 230.036 C 344.311 229.193, 344.278 228.850, 342.734 227.306 C 341.204 225.775, 340.679 225.720, 338.807 226.888 C 336.924 228.064, 336.477 228.005, 335.323 226.428 C 334.293 225.019, 334 224.948, 334 226.109 C 334 226.929, 334.501 228.101, 335.113 228.713 C 335.725 229.325, 335.923 230.315, 335.554 230.913 C 334.357 232.849, 333 232.066, 333 229.441 C 333 227.990, 332.567 227.149, 332 227.500 C 330.225 228.597, 330.934 231.582, 333.500 233.813 C 336.325 236.269, 336.816 240.473, 334.387 241.405 C 333.403 241.782, 332.965 242.758, 333.264 243.901 C 334.023 246.803, 332.434 248.430, 328.807 248.467 C 325.723 248.498, 325.459 248.770, 324.897 252.500 C 324.566 254.700, 323.778 257.767, 323.147 259.315 C 322.516 260.863, 322 262.383, 322 262.693 C 322 263.876, 330.497 261.824, 335.610 259.405 C 342.105 256.332, 346.058 251.736, 349.672 243.058 C 351.908 237.686, 352.411 234.933, 352.451 227.833 C 352.495 220.002, 352.266 218.917, 350.076 216.583 C 347.539 213.880, 344.696 213.364, 341.762 215.073 M 219.224 222.113 C 215.031 223.664, 213.514 231.434, 216.557 235.777 C 218.710 238.851, 225.111 238.870, 227.961 235.811 C 233.563 229.799, 226.860 219.288, 219.224 222.113 M 282.974 223.820 C 281.282 225.190, 280.727 226.690, 280.727 229.898 C 280.727 235.902, 282.888 237.645, 289.724 237.158 C 294.256 236.836, 296.369 227.560, 292.872 223.345 C 291.270 221.416, 285.608 221.687, 282.974 223.820 M 173 226 C 173 226.550, 173.702 227, 174.559 227 C 175.416 227, 175.840 226.550, 175.500 226 C 175.160 225.450, 174.459 225, 173.941 225 C 173.423 225, 173 225.450, 173 226 M 175.591 228.853 C 175.301 229.322, 175.710 230.559, 176.500 231.603 C 177.861 233.400, 177.938 233.356, 177.968 230.750 C 177.999 228.111, 176.694 227.069, 175.591 228.853 M 176.965 236.542 C 175.995 237.711, 175.966 238.366, 176.842 239.242 C 177.479 239.879, 178 241.660, 178 243.200 C 178 245.122, 178.511 246, 179.631 246 C 180.959 246, 181.147 245.304, 180.642 242.250 C 180.301 240.188, 180.017 237.713, 180.011 236.750 C 179.997 234.588, 178.663 234.497, 176.965 236.542 M 329.445 236.088 C 329.105 236.639, 328.702 238.665, 328.549 240.592 L 328.271 244.094 330.636 241.873 C 331.936 240.651, 333 238.878, 333 237.933 C 333 235.958, 330.369 234.593, 329.445 236.088 M 208.972 255.534 C 207.838 256.900, 209.135 257.054, 220.849 256.939 C 231.416 256.835, 234 256.534, 234 255.405 C 234 253.253, 210.766 253.372, 208.972 255.534 M 254.649 254.759 C 254.391 255.176, 254.527 257.413, 254.951 259.729 C 255.616 263.370, 255.434 264.149, 253.610 265.471 C 251.677 266.873, 251.794 266.888, 255 265.655 C 258.640 264.254, 258.970 262.996, 257.464 256.250 C 256.968 254.029, 255.561 253.283, 254.649 254.759 M 274.002 255.250 C 274.004 256.174, 277.325 256.550, 286.752 256.693 C 298.063 256.864, 299.281 256.723, 297.559 255.443 C 294.965 253.515, 273.999 253.343, 274.002 255.250 M 251.500 269.523 C 248.750 270.287, 245.514 270.932, 244.309 270.956 C 241.395 271.015, 241.099 271.701, 241.698 277.011 C 242.187 281.349, 242.420 281.625, 247.853 284.262 C 253.734 287.117, 256 287.627, 256 286.098 C 256 285.602, 257.350 284.725, 259 284.150 C 261.853 283.155, 262 282.829, 262 277.486 C 262 271.131, 260.729 267.969, 258.215 268.067 C 257.272 268.105, 254.250 268.760, 251.500 269.523 M 250.250 272.562 C 248.170 273.486, 247 274.716, 247 275.978 C 247 277.682, 247.349 277.818, 249.565 276.975 C 253.026 275.659, 254 275.747, 254 277.372 C 254 278.200, 252.413 278.998, 250 279.384 C 247.800 279.736, 246.005 280.356, 246.010 280.762 C 246.016 281.168, 247.816 282.254, 250.010 283.176 C 252.205 284.097, 254 284.443, 254 283.945 C 254 283.446, 255.129 282.755, 256.509 282.408 C 259.417 281.679, 260.390 278.816, 259.197 274.500 C 258.220 270.964, 255.281 270.328, 250.250 272.562 M 269.500 296.558 C 266.200 297.268, 261.700 298.563, 259.500 299.436 L 255.500 301.023 262 300.458 C 269.489 299.806, 275.667 298.348, 276.474 297.042 C 277.496 295.389, 275.559 295.254, 269.500 296.558 M 238.446 300.087 C 238.077 300.685, 238.275 301.675, 238.887 302.287 C 241.699 305.099, 240.056 306, 232.122 306 C 223.357 306, 221.638 306.983, 222.178 311.690 L 222.500 314.500 241.243 314.772 L 259.987 315.044 264.974 309.772 C 270.537 303.890, 271.037 302.749, 267.750 303.424 C 266.512 303.679, 262.209 304.167, 258.187 304.510 C 254.165 304.853, 248.786 305.762, 246.234 306.530 C 243.682 307.298, 241.347 307.678, 241.047 307.374 C 240.302 306.620, 246.161 302.011, 247.872 302.005 C 248.979 302.001, 249.004 301.709, 248 300.500 C 246.559 298.764, 239.454 298.457, 238.446 300.087 M 291.174 311.935 C 283.914 317.977, 280 325.109, 280 332.296 C 280 336.540, 280.458 337.658, 283.400 340.600 C 285.840 343.040, 287.697 344, 289.977 344 L 293.153 344 289.941 341.297 C 285.249 337.349, 283.744 333.103, 285.020 327.412 C 286.438 321.083, 288.436 317.517, 293.744 311.843 C 296.235 309.179, 298.010 307, 297.689 307 C 297.367 307, 294.435 309.221, 291.174 311.935 M 302.999 314.598 C 292.286 324.618, 291.193 334.993, 299.864 344.342 C 302.610 347.302, 308.981 351.023, 311.210 350.969 C 313.568 350.911, 316.145 345.991, 316.716 340.461 C 317.026 337.457, 317.667 335, 318.140 335 C 319.350 335, 319.202 344.734, 317.922 349.344 C 317.335 351.458, 317.027 353.360, 317.238 353.571 C 317.786 354.119, 334.263 348.987, 335.691 347.824 C 336.950 346.798, 336.384 344.283, 334.454 342.327 C 333.818 341.682, 333.026 338.870, 332.696 336.078 C 331.591 326.753, 326.722 318.709, 318.636 312.851 C 312.698 308.550, 309.026 308.960, 302.999 314.598 M 225.250 318.820 C 222.492 319.211, 222.484 319.429, 225.083 323.634 C 227.784 328.005, 230.245 328.519, 241.337 327.030 C 250.566 325.790, 253.699 324.253, 256.109 319.783 C 256.967 318.191, 255.954 318.082, 242.268 318.283 C 234.145 318.402, 226.488 318.644, 225.250 318.820 M 319.511 327.377 C 320.457 328.820, 321.419 330, 321.650 330 C 322.374 330, 320.045 326.146, 318.891 325.433 C 318.287 325.059, 318.566 325.934, 319.511 327.377 M 190.508 329.400 C 185.368 336.140, 184.309 345, 188.645 345 C 189.415 345, 191.997 346.800, 194.384 349 C 198.406 352.707, 201.723 353.944, 203.332 352.335 C 203.697 351.969, 202.872 349.750, 201.497 347.404 C 199.527 344.042, 199.195 342.617, 199.932 340.679 C 200.863 338.229, 199.383 334.461, 194.931 327.953 L 193.362 325.659 190.508 329.400 M 237.030 329.930 L 229.560 330.500 232.280 332.250 C 233.776 333.212, 236.038 334.670, 237.308 335.489 C 239.492 336.899, 239.823 336.765, 243.511 332.989 C 245.653 330.795, 246.752 329.081, 245.953 329.180 C 245.154 329.279, 241.139 329.617, 237.030 329.930 M 200.607 359.582 C 200.273 360.452, 200 361.921, 200 362.847 C 200 363.772, 199.100 366.209, 198 368.261 C 196.900 370.314, 196 372.444, 196 372.996 C 196 373.548, 196.900 374, 198 374 C 199.333 374, 200 373.333, 200 372 C 200 369.891, 201.455 369.309, 202.500 371 C 203.758 373.035, 206.771 371.966, 207.976 369.059 C 209.038 366.494, 208.902 365.598, 206.913 362.059 C 204.568 357.887, 201.691 356.757, 200.607 359.582 M 336.895 358.438 C 336.654 358.679, 332.642 359.982, 327.978 361.333 C 317.121 364.480, 311.235 368.229, 310.432 372.511 C 309.056 379.848, 311.750 385.024, 313.834 379.045 C 315.134 375.316, 315.487 375.286, 317.727 378.712 C 318.831 380.401, 319.500 383.326, 319.500 386.462 C 319.500 390.943, 319.752 391.536, 321.777 391.823 C 323.551 392.075, 324.289 391.469, 325.124 389.073 C 326.491 385.154, 328 385.116, 328 389 C 328 391.650, 328.341 392, 330.929 392 C 334.264 392, 337 389.741, 337 386.988 C 337 385.959, 337.450 384.840, 338 384.500 C 338.583 384.139, 339 385.156, 339 386.941 C 339 393.544, 344.651 389.061, 345.229 381.998 L 345.597 377.500 346.896 380.749 C 347.610 382.536, 348.653 383.715, 349.212 383.369 C 350.871 382.344, 349.509 373.462, 347.253 370.594 C 346.119 369.153, 344.384 365.729, 343.398 362.987 C 342.008 359.121, 341.125 358, 339.469 358 C 338.294 358, 337.136 358.197, 336.895 358.438 M 230.500 363.911 L 226.500 364.538 229.875 365.269 C 234.296 366.227, 267.929 366.083, 270.453 365.095 C 272.107 364.448, 271.896 364.229, 269.078 363.666 C 265.026 362.855, 236.059 363.039, 230.500 363.911 M 215.388 369.069 C 220.396 372.213, 227.873 373.240, 249 373.688 C 269.924 374.131, 277.895 373.535, 278.301 371.497 C 278.426 370.871, 269.748 370.267, 255 369.875 C 242.075 369.531, 227.450 368.942, 222.500 368.566 C 215.372 368.026, 213.893 368.130, 215.388 369.069 M 304 454.131 C 298.460 455.635, 295 457.169, 295 458.121 C 295 458.605, 295.267 459, 295.593 459 C 296.642 459, 311 453.754, 311 453.370 C 311 452.762, 307.734 453.117, 304 454.131 M 191 455.259 C 191 456.340, 192.939 456.870, 198.651 457.353 C 208.724 458.205, 217.024 458.064, 219.500 457 C 222.116 455.876, 222.073 455.868, 211 455.553 C 205.775 455.405, 199.137 454.952, 196.250 454.548 C 191.997 453.952, 191 454.087, 191 455.259 M 274 459.875 C 274 461.064, 279.121 462, 285.625 462 C 289.736 462, 291 461.647, 291 460.500 C 291 459.284, 289.389 459, 282.500 459 C 277.825 459, 274 459.394, 274 459.875" stroke="none" fill="black" fill-rule="evenodd"/>
</svg>